HIERARCHY
ROOT pelvis
{
  OFFSET 0 100 0
  CHANNELS 6 Xposition Yposition Zposition Zrotation Xrotation Yrotation
  JOINT pelvis_right_femur
  {
    OFFSET -10.78128 -3.44521 -0.5502486
    CHANNELS 3 Zrotation Xrotation Yrotation
    JOINT right_femur_tibia
    {
      OFFSET -0.8047443 -44.0398 -0.1307829
      CHANNELS 3 Zrotation Xrotation Yrotation
      JOINT right_tibia_foot
      {
        OFFSET 3.006224 -47.83518 -5
        CHANNELS 3 Zrotation Xrotation Yrotation
        End Site
        {
          OFFSET 0 -5 15
        }
      }
    }
  }
  JOINT pelvis_left_femur
  {
    OFFSET 10.78128 -3.44521 -0.5502486
    CHANNELS 3 Zrotation Xrotation Yrotation
    JOINT left_femur_tibia
    {
      OFFSET 0.8047443 -44.0398 -0.1307829
      CHANNELS 3 Zrotation Xrotation Yrotation
      JOINT left_tibia_foot
      {
        OFFSET -4.370144 -48.10324 -4.275266
        CHANNELS 3 Zrotation Xrotation Yrotation
        End Site
        {
          OFFSET 0 -5 15
        }
      }
    }
  }
  JOINT pelvis_spine1
  {
    OFFSET 0 6.468898 -3.129235
    CHANNELS 3 Zrotation Xrotation Yrotation
    JOINT spine1
    {
      OFFSET 0 23.15396 4.99043
      CHANNELS 3 Zrotation Xrotation Yrotation
      JOINT spine2
      {
        OFFSET 0 20.79997 -5.064912
        CHANNELS 3 Zrotation Xrotation Yrotation
        JOINT neck
        {
          OFFSET 0 14.38658 9.616178
          CHANNELS 3 Zrotation Xrotation Yrotation
          End Site
          {
            OFFSET 0 20 0
          }
        }
      }
      JOINT right_manubrium
      {
        OFFSET -5.722621 16.35077 3.967754
        CHANNELS 3 Zrotation Xrotation Yrotation
        JOINT right_clavicle
        {
          OFFSET -13.16364 1.694482 -4.693211
          CHANNELS 3 Zrotation Xrotation Yrotation
          JOINT right_humerus
          {
            OFFSET -28.5034 -0.3100689 -2.792744
            CHANNELS 3 Zrotation Xrotation Yrotation
            JOINT right_radius
            {
              OFFSET -25.15693 0.02248979 -1.271978
              CHANNELS 3 Zrotation Xrotation Yrotation
              End Site
              {
                OFFSET -15 0 0
              }
            }
          }
        }
      }
      JOINT left_manubrium
      {
        OFFSET 5.722621 16.35077 3.967754
        CHANNELS 3 Zrotation Xrotation Yrotation
        JOINT left_clavicle
        {
          OFFSET 13.16364 1.694482 -4.693211
          CHANNELS 3 Zrotation Xrotation Yrotation
          JOINT left_humerus
          {
            OFFSET 29.39168 -1.063119 -2.237045
            CHANNELS 3 Zrotation Xrotation Yrotation
            JOINT left_radius
            {
              OFFSET 24.59957 -0.9528479 0.9047498
              CHANNELS 3 Zrotation Xrotation Yrotation
              End Site
              {
                OFFSET 15 -0 -0
              }
            }
          }
        }
      }
    }
  }
}
MOTION
Frames: 15
Frame Time: 0.0416666666667
-1331.781 109.756 2099.511 -9.439548 -1.05616 -83.30815 2.311568 20.57107 -2.441456 -0 22.85768 -0 -13.75027 -7.542263 1.562779 -0.3078036 -15.63845 -10.5017 -0 8.467152 -0 -0.5855539 -3.433054 20.06478 -0.7850726 -1.786063 7.60049 0.1029899 12.54102 -7.479095 0.155699 19.75105 7.415931 6.663712 -20.41444 5.402727 2.451415 -21.38323 11.43485 89.10433 33.79037 -19.55332 -0 0 17.92248 -14.86855 8.342894 0.7320849 10.50867 -27.58871 -3.35877 -89.69795 7.541355 18.87646 0 0 -17.74809 22.85054 10.90492 -16.25446
-1337.983 109.8243 2101.396 -10.27615 -2.109984 -83.4759 0.562087 20.97589 -3.014168 -0 29.70849 -0 -14.12067 -1.728611 2.908868 -2.476911 -12.65342 -12.76835 -0 10.63978 -0 -1.418996 -4.995474 20.76371 -0.7090217 -1.781297 7.736594 0.05634326 12.57009 -7.432031 0.1408893 19.76343 7.310848 6.529378 -20.43327 5.410361 2.128761 -21.93064 11.42239 89.25348 33.73844 -19.21636 -0 0 18.6271 -15.01223 8.379212 0.6727548 10.23875 -27.43121 -3.452186 -89.96641 7.338433 19.89479 0 0 -16.71991 22.81125 11.03864 -16.34771
-1344.155 110.4228 2103.253 -11.13781 -2.977389 -83.32847 -0.7754893 19.67379 -3.530526 -0 37.2523 -0 -14.97613 4.327278 4.220463 -4.257483 -9.03149 -14.66837 -0 13.02982 -0 -2.033032 -6.713186 21.39727 -0.5752455 -1.785726 7.887441 0.02089225 12.58803 -7.415771 0.1852627 19.72995 7.134606 6.250832 -20.64667 5.542234 1.624057 -22.66686 11.39464 89.54633 33.61412 -18.81298 -0 0 19.49596 -15.14228 8.45868 0.6530044 9.88552 -27.12014 -3.399312 -90.26184 7.228992 21.13589 0 0 -15.46862 22.70021 11.24392 -16.39518
-1350.038 111.4281 2105.005 -11.84531 -3.394673 -82.92271 -1.416279 16.3545 -3.900542 -0 44.25571 -0 -16.10532 9.350951 5.225296 -5.309744 -5.06905 -15.90522 -0 14.66498 -0 -2.287092 -8.367664 21.89042 -0.3927606 -1.795615 8.055419 -0.01517569 12.58751 -7.41425 0.2962838 19.65172 6.880094 5.824953 -21.05863 5.803998 0.945109 -23.60602 11.34268 89.94544 33.47789 -18.27203 -0 0 20.57262 -15.26614 8.578539 0.6953589 9.441907 -26.62223 -3.173343 -90.59081 7.215909 22.62692 0 0 -13.91892 22.52806 11.52201 -16.40818
-1355.45 112.5893 2106.6 -12.27885 -3.322618 -82.37552 -1.360712 11.3863 -4.179196 -0 49.01685 -0 -17.10191 12.32068 5.697539 -5.601694 -1.108506 -16.42723 -0 14.94053 -0 -2.248924 -9.861993 22.08572 -0.1746305 -1.809998 8.235511 -0.06627545 12.56041 -7.412039 0.4809747 19.52746 6.553253 5.265392 -21.66732 6.202787 0.1228232 -24.73116 11.25538 90.40904 33.41239 -17.54835 -0 0 21.86804 -15.38499 8.742787 0.8120465 8.92501 -25.92447 -2.743287 -90.95071 7.2948 24.34114 0 0 -12.04381 22.33861 11.86874 -16.42879
-1360.363 113.6017 2108.026 -12.39121 -2.995387 -81.80686 -0.9440439 5.735345 -4.596304 -0 50.02305 -0 -17.5926 12.90595 5.635448 -5.424181 2.58305 -16.45152 -0 13.85994 -0 -2.188385 -11.29122 21.78454 0.06583821 -1.833866 8.412926 -0.1460561 12.50019 -7.400424 0.7446387 19.35282 6.17933 4.606998 -22.46569 6.749437 -0.7872324 -25.97992 11.1235 90.90388 33.50285 -16.65686 -0 0 23.3322 -15.49015 8.967237 0.9939163 8.386075 -25.05141 -2.080909 -91.32263 7.455384 26.16968 0 0 -9.913495 22.21786 12.27702 -16.53813
-1364.881 114.2075 2109.304 -12.15167 -2.742105 -81.29393 -0.6154761 0.3770751 -5.393806 -0 46.73067 -0 -17.41941 11.53143 5.262345 -5.185137 5.850181 -16.25987 -0 11.9649 -0 -2.296676 -12.82133 20.90193 0.3198208 -1.880599 8.564572 -0.2629004 12.40545 -7.382193 1.089223 19.12058 5.803427 3.905042 -23.44127 7.457766 -1.708197 -27.24253 10.94618 91.41318 33.80864 -15.69116 -0 0 24.84183 -15.56207 9.283493 1.205778 7.910398 -24.07355 -1.171968 -91.66908 7.686919 27.91795 0 0 -7.721848 22.28595 12.74036 -16.8465
-1369.18 114.2701 2110.472 -11.51258 -2.738833 -80.86482 -0.6122514 -4.235212 -6.557788 -0 39.9019 -0 -16.62664 9.086219 4.813596 -5.166688 8.598964 -15.97455 -0 10.02468 -0 -2.41063 -14.49033 19.61011 0.5848867 -1.970921 8.664403 -0.4146273 12.28376 -7.37279 1.509737 18.82306 5.483293 3.229619 -24.57021 8.334935 -2.547838 -28.37491 10.73742 91.93393 34.33261 -14.81533 -0 0 26.21281 -15.57184 9.734248 1.393531 7.603394 -23.10149 -0.03193718 -91.94067 7.984625 29.33447 0 0 -5.772757 22.66175 13.24974 -17.45441
-1373.426 113.7956 2111.575 -10.46136 -2.923955 -80.5195 -0.8334253 -8.199681 -7.766401 -0 31.26053 -0 -15.39725 6.542589 4.395423 -5.427813 10.76468 -15.54576 -0 8.711028 -0 -2.09358 -16.15659 18.30335 0.8615643 -2.125812 8.689833 -0.5829758 12.15364 -7.397941 1.987842 18.45764 5.275167 2.655684 -25.80401 9.361094 -3.208295 -29.22338 10.52844 92.46793 34.99836 -14.23136 -0 0 27.23277 -15.48499 10.35277 1.501378 7.563397 -22.26654 1.276549 -92.08955 8.350881 30.16554 0 0 -4.424153 23.40338 13.78109 -18.39063
-1377.747 112.8977 2112.655 -9.086875 -3.104488 -80.25188 -0.9896271 -11.82927 -8.637533 -0 22.67722 -0 -14.00698 4.646074 4.0222 -5.856347 12.33287 -14.89295 -0 8.414761 -0 -1.007588 -17.59969 17.36533 1.145289 -2.353333 8.626344 -0.7318061 12.0409 -7.48734 2.485997 18.03528 5.215189 2.246595 -27.05704 10.4678 -3.605983 -29.65986 10.36087 93.01366 35.65575 -14.12396 -0 0 27.71091 -15.27008 11.12977 1.493096 7.844327 -21.6889 2.635598 -92.08333 8.787156 30.22691 0 0 -3.987445 24.44938 14.28504 -19.55821
-1382.227 111.7399 2113.738 -7.570799 -3.109861 -80.05757 -0.8198084 -15.30825 -8.983181 -0 15.44602 -0 -12.74766 3.768165 3.70109 -6.279752 13.35563 -14.0003 -0 9.259496 -0 0.8129524 -18.61835 16.93123 1.418615 -2.636224 8.469588 -0.8157268 11.96807 -7.663103 2.949728 17.58704 5.30404 2.033805 -28.2107 11.53594 -3.699583 -29.62139 10.26987 93.55974 36.13306 -14.5902 -0 0 27.53884 -14.91421 11.99013 1.36835 8.422639 -21.43987 3.889492 -91.91373 9.280872 29.47341 0 0 -4.602676 25.60729 14.69644 -20.73727
-1386.935 110.4911 2114.83 -6.121208 -2.869118 -79.93189 -0.1958372 -18.56133 -8.849792 -0 10.0824 -0 -11.84674 3.941334 3.466294 -6.553072 13.92616 -12.90376 -0 11.24077 -0 2.999735 -19.06472 16.84092 1.651543 -2.932222 8.226939 -0.7992806 11.943 -7.926523 3.322067 17.16096 5.506414 2.005839 -29.14243 12.42702 -3.508012 -29.13435 10.26706 94.07934 36.31406 -15.58849 -0 0 26.7358 -14.43851 12.80742 1.163676 9.194747 -21.51834 4.888864 -91.59828 9.799022 28.02644 0 0 -6.163808 26.62161 14.96226 -21.66666
-1391.93 109.3085 2115.927 -4.914667 -2.402112 -79.86974 0.8817814 -21.31149 -8.41036 -0 6.552485 -0 -11.43163 4.972765 3.360724 -6.59236 14.12918 -11.64423 -0 14.36137 -0 5.06878 -18.84119 16.76949 1.812682 -3.190692 7.919857 -0.6746166 11.95638 -8.252352 3.562957 16.80792 5.767969 2.117935 -29.76566 13.03336 -3.101685 -28.3052 10.33738 94.53069 36.18413 -16.9478 -0 0 25.44618 -13.89888 13.45423 0.9351261 10.01563 -21.85871 5.537677 -91.17679 10.29576 26.13416 0 0 -8.360314 27.2863 15.0628 -22.15853
-1397.264 108.3386 2117.023 -4.075262 -1.777227 -79.87174 2.328259 -23.19633 -7.846001 -0 4.602346 -0 -11.53274 6.528457 3.398922 -6.36756 13.99293 -10.25355 -0 18.69067 -0 6.616088 -17.88211 16.40292 1.882839 -3.373481 7.583529 -0.464194 11.98971 -8.596184 3.660306 16.56506 6.038092 2.316364 -30.05346 13.3126 -2.571917 -27.28174 10.45125 94.86715 35.81629 -18.43559 -0 0 23.88747 -13.36687 13.85037 0.7331105 10.75455 -22.36358 5.814004 -90.7036 10.7279 24.0867 0 0 -10.80785 27.52122 15.00959 -22.16454
-1402.955 107.7227 2118.107 -3.674333 -1.076529 -79.95333 4.012064 -23.86951 -7.275288 -0 3.96639 -0 -12.0945 8.16457 3.537845 -5.883664 13.44922 -8.778353 -0 24.33349 -0 7.414548 -16.14744 15.56919 1.860149 -3.46517 7.259743 -0.2080054 12.02569 -8.910052 3.626525 16.44791 6.28423 2.559682 -30.03185 13.28555 -1.999105 -26.20659 10.5801 95.05046 35.32088 -19.83839 -0 0 22.27896 -12.90404 13.97644 0.5855957 11.33188 -22.93945 5.756366 -90.2356 11.06639 22.13436 0 0 -13.17716 27.3688 14.8298 -21.75942
